# xmcd
#
# Track frame offsets:
#	150
#	14708
#	28215
#	45590
#	63110
#
# Disc length: 1050 seconds
#
# Revision: 1
# Processed by: cddbd v1.4PL0 Copyright (c) Steve Scherf et al.
# Submitted via: audiograbber 1.80
#
DISCID=3c041805
DTITLE=Ray Norrutz - I Want You
DYEAR=1900
DGENRE=
TTITLE0=There's A Pain In My Heart
TTITLE1=What Can I Do
TTITLE2=I Want You
TTITLE3=Watch Her Dancin
TTITLE4=Nobody Realy Notice
EXTD=
EXTT0=
EXTT1=
EXTT2=
EXTT3=
EXTT4=
PLAYORDER=
